<svg width="1920" height="878" xmlns="http://www.w3.org/2000/svg">
 <mask id="mask0" maskUnits="userSpaceOnUse" x="-1175" y="7" width="3280" height="997">
  <path d="m1177.85,934.808c395.57,69.682 705.72,23.756 809.15,-34.808l117.98,-892.91515c-288.52,38.50415 -219.07,105.62115 -683.63,45.09785c-605.865,-78.9335 -610.8,73.1423 -1026.478,12.2128c-415.6778,-60.92993 -699.177,-25.6622 -994.28,21.5105c-236.083,37.738 -481.632,-3.1764 -574.892,-28.3509l20.32,927.6999c475.093,71.295 299.973,-99.72 1012.032,-21.894c712.059,77.829 811.475,-118.092 1319.798,-28.553z" fill="url(#paint2_linear)" id="svg_1"/>
 </mask>
 <defs>
  <linearGradient id="paint0_linear" x1="0.72142" y1="0.61788" x2="0.27692" y2="0.08522">
   <stop stop-color="#F4992B"/>
   <stop offset="1" stop-color="#F9CC26"/>
  </linearGradient>
  <linearGradient id="paint2_linear" x1="0.50651" y1="1.09954" x2="0.49937" y2="0.01368">
   <stop stop-color="#F2682D"/>
   <stop offset="1" stop-color="#F4992B"/>
  </linearGradient>
 </defs>
 <g>
  <title>background</title>
  <rect x="-1" y="-1" width="1922" height="880" id="canvas_background" fill="none"/>
 </g>
 <g>
  <title>Layer 1</title>
  <path opacity="0.2" d="m1676.53,794.796c395.28,59.578 670.8,-42.094 774.47,-92.814l156.33,-709.58786c-288.66,33.67276 -219.49,91.52146 -683.78,39.95076c-605.52,-67.2575 -611.06,64.058 -1026.47,12.064c-415.411,-51.99392 -699.035,-21.1229 -994.3107,20.0443c-236.2203,32.9339 -481.5893,-2.0299 -574.7463,-23.6284l16.61,800.9802c474.782,60.858 300.355,-86.546 1012.064,-20.402c711.703,66.143 811.903,-103.166 1319.833,-26.607z" fill="url(#paint0_linear)" id="svg_2"/>
  <path d="m1176.85,933.808c395.57,69.682 705.72,23.756 809.15,-34.808l117.98,-892.91515c-288.52,38.50415 -219.07,105.62115 -683.63,45.09785c-605.865,-78.9335 -610.801,73.1423 -1026.478,12.2128c-415.6779,-60.92993 -699.177,-25.6622 -994.28,21.5105c-236.083,37.738 -481.632,-3.1764 -574.892,-28.3509l20.32,927.6999c475.093,71.295 299.973,-99.72 1012.032,-21.894c712.059,77.829 811.475,-118.092 1319.798,-28.553z" fill="#d4aaff" id="svg_3"/>
  <g mask="url(#mask0)" id="svg_4">
   <path opacity="0.05" d="m139.2373,93.7341c-123.1363,-153.7429 -91.0033,-309.6741 -59.5456,-368.4211c88.83599,-8.626 360.9203,-46.894 738.5713,-130.966c472.067,-105.09 903.487,180.036 745.277,322.733c-158.2,142.6968 26.5,456.581 -248.22,594.441c-274.728,137.86 -509.041,-29.643 -660.732,-209.37c-151.69,-179.7279 -361.431,-16.238 -515.3507,-208.4169z" fill="white" id="svg_5"/>
  </g>
  <path opacity="0.1" d="m2698.09,526.593c137.05,141.474 119.74,299.737 93.94,361.184c-87.63,16.946 -354.9,80.645 -722.97,199.873c-460.08,149.05 -916.42,-94.222 -772.34,-251.172c144.08,-156.95 -69.34,-452.061 191.19,-615.16c260.54,-163.0977 509.57,-18.385 677.5,146.273c167.93,164.657 361.36,-17.842 532.68,159.002z" fill="#efe8f7" id="svg_6"/>
  <path opacity="0.1" d="m633.463,774.925c46.93,92.348 13.682,169.19 -8.808,196.067c-46.662,-5.075 -190.849,-14.518 -394.295,-11.688c-254.3078,3.539 -445.891,-189.478 -349.149,-246.001c96.7423,-56.522 35.2663,-237.917 191.4817,-279.467c156.2153,-41.55 258.9123,69.792 317.7593,178.577c58.848,108.785 184.35,47.078 243.011,162.512z" fill="#f4eff4" id="svg_7"/>
 </g>
</svg>