<svg width="1920" height="698" xmlns="http://www.w3.org/2000/svg">
 <defs>
  <linearGradient y2="-0.00452" x2="0.49951" y1="1.37572" x1="0.50112" id="paint0_linear">
   <stop stop-color="#F4992B"/>
   <stop stop-color="#FFE78E" offset="1"/>
  </linearGradient>
 </defs>
 <g>
  <title>background</title>
  <rect fill="none" id="canvas_background" height="880" width="1922" y="-1" x="-1"/>
 </g>
 <g>
  <title>Layer 1</title>
  <path id="svg_1" fill="url(#paint0_linear)" d="m1923.34,661.11c394.37,65.302 671.34,-32.366 775.73,-81.578l166.6,-557.2468c-289.12,29.4851 -220.79,88.3308 -684.28,30.0351c-604.49,-76.0277 -611.93,55.1937 -1026.54,-2.8164c-414.618,-58.01011 -698.66,-31.2536 -994.501,5.6292c-236.6731,29.5063 -481.51,-9.0104 -574.344,-31.9571l4.998,651.136c473.8499,67.735 301.579,-82.183 1012.253,-5.729c710.674,76.453 813.314,-91.386 1320.084,-7.473z" opacity="0.1"/>
  <path id="svg_2" fill="#ffaaff" d="m1343.34,658.725c394.37,65.301 671.34,-32.367 775.73,-81.579l166.6,-557.2465c-289.12,29.4851 -220.79,88.3305 -684.28,30.035c-604.485,-76.0276 -611.931,55.1935 -1026.544,-2.8164c-414.614,-58.0101 -698.656,-31.2535 -994.497,5.6293c-236.673,29.5062 -481.51,-9.0105 -574.344,-31.9571l4.998,651.1367c473.85,67.734 301.579,-82.183 1012.2533,-5.73c710.6747,76.453 813.3117,-91.386 1320.0837,-7.472z" opacity="0.1"/>
 </g>
</svg>