<svg width="1920" height="847" xmlns="http://www.w3.org/2000/svg">
 <defs>
  <linearGradient y2="-0.00371" x2="0.49951" y1="1.12609" x1="0.50112" id="paint0_linear">
   <stop stop-color="#F4992B"/>
   <stop stop-color="#FFE78E" offset="1"/>
  </linearGradient>
 </defs>
 <g>
  <title>background</title>
  <rect fill="none" id="canvas_background" height="602" width="802" y="-1" x="-1"/>
 </g>
 <g>
  <title>Layer 1</title>
  <path id="svg_1" fill="url(#paint0_linear)" d="m1677.88,810.513c394.37,65.301 671.33,-32.367 775.72,-81.579l166.6,-707.2468c-289.12,29.485 -220.78,88.3308 -684.28,30.035c-604.48,-76.0276 -611.93,55.1938 -1026.539,-2.8164c-414.614,-58.01001 -698.656,-31.2535 -994.4971,5.6293c-236.6729,29.5063 -481.5099,-9.0105 -574.3439,-31.9571l4.998,801.137c473.85,67.734 301.579,-82.183 1012.253,-5.73c710.679,76.453 813.309,-91.386 1320.089,-7.472z" opacity="0.1"/>
  <path id="svg_2" fill="#e84ae8" d="m2057.88,808.127c394.37,65.301 671.33,-32.367 775.72,-81.578l166.6,-707.2476c-289.12,29.4851 -220.78,88.3306 -684.28,30.0351c-604.48,-76.0277 -611.93,55.1935 -1026.54,-2.8164c-414.613,-58.01 -698.655,-31.2536 -994.496,5.6292c-236.6731,29.5063 -481.51,-9.0105 -574.344,-31.9571l4.998,801.1368c473.85,67.734 301.5786,-82.183 1012.253,-5.73c710.679,76.453 813.309,-91.386 1320.089,-7.472z" opacity="0.1"/>
 </g>
</svg>