<svg width="256" height="256" xmlns="http://www.w3.org/2000/svg" preserveAspectRatio="xMidYMid meet">

 <g>
  <title>background</title>
  <rect fill="none" id="canvas_background" height="258" width="258" y="-1" x="-1"/>
 </g>
 <g>
  <title>Layer 1</title>
  <g opacity="0.6" id="svg_1" transform="matrix(0.02319962815488866,0,0,-0.024095389741215143,-1.5552478480293654,259.87813298311943) ">
   <path fill="#aaaaff" id="svg_2" d="m175.78465,8261.31897c1,-1465 3,-2625 5,-2578c74,2282 1557,4256 3733,4968c547,179 1074,262 1670,262c336,0 595,-21 895,-71c1421,-239 2691,-1038 3526,-2219c587,-829 932,-1836 978,-2851c4,-96 9,1015 9,2489l2,2662l-5410,0l-5410,0l2,-2662z"/>
   <path fill="#aaaaff" id="svg_3" d="m5065.78465,10446.31897c-47,-4 -54,-7 -63,-31c-11,-28 -189,-650 -189,-660c0,-8 122,6 131,15c5,5 15,37 22,71s17,66 22,71c10,10 53,16 192,27l82,6l36,-72l36,-72l59,4c33,2 63,8 67,11c4,4 -33,85 -82,180s-122,235 -161,312c-40,77 -79,140 -86,141c-7,0 -37,-1 -66,-3zm86,-275c29,-61 49,-115 45,-119s-45,-11 -90,-15c-73,-6 -83,-5 -83,10c0,14 44,193 55,224c9,25 21,8 73,-100z"/>
   <path fill="#aaaaff" id="svg_4" d="m5998.78465,10419.31897c-29,-13 -70,-45 -97,-74c-38,-43 -50,-66 -68,-134c-69,-257 57,-454 290,-451c73,0 131,21 174,61c29,28 76,95 76,110c0,5 -26,20 -58,34l-58,25l-13,-29c-7,-15 -26,-42 -43,-58c-31,-31 -57,-37 -140,-31c-33,2 -95,68 -108,116c-15,54 -8,158 16,227c31,92 112,140 197,117c51,-13 73,-32 99,-83l20,-39l55,6c30,3 57,8 60,11s2,22 -2,42c-9,51 -94,135 -159,157c-74,25 -179,22 -241,-7z"/>
   <path fill="#aaaaff" id="svg_5" d="m7021.78465,10115.31897c-48,-59 -95,-116 -105,-127c-37,-42 -131,-153 -195,-232l-67,-81l27,-10c25,-10 93,-32 97,-32c1,0 23,27 51,60c27,33 55,60 61,60c12,0 119,-34 211,-67c37,-14 42,-19 42,-47c0,-17 3,-54 6,-83l7,-51l61,-19c33,-11 62,-16 64,-12c3,8 -37,701 -41,705s-121,44 -127,44c-3,-1 -44,-49 -92,-108zm113,-144c0,-46 2,-102 5,-125c2,-23 -1,-45 -6,-48c-12,-7 -170,43 -170,53c0,7 54,78 95,123c12,15 31,38 40,53c10,14 21,26 26,26s9,-37 10,-82z"/>
   <path fill="#aaaaff" id="svg_6" d="m3658.78465,10097.31897c-82,-36 -184,-78 -225,-95s-78,-34 -82,-37c-4,-4 0,-28 10,-53c19,-51 14,-51 114,-8c36,16 73,29 81,29c9,0 28,-33 50,-87c20,-49 52,-126 72,-173s50,-120 68,-162c20,-49 38,-78 47,-78c23,1 100,38 100,49c0,9 -68,175 -159,388c-27,61 -46,116 -42,121c3,5 42,24 86,41c44,18 81,34 83,36c8,7 -33,95 -43,94c-5,0 -77,-30 -160,-65z"/>
   <path fill="#aaaaff" id="svg_7" d="m7900.78465,9856.31897c-34,-53 -201,-335 -206,-348c-2,-5 -28,-49 -57,-96l-53,-87l37,-25c99,-65 234,-140 278,-153c113,-35 228,19 313,148c104,155 110,310 16,403c-22,22 -90,69 -150,104c-61,35 -120,71 -132,78c-20,14 -23,12 -46,-24zm159,-168c134,-84 145,-146 55,-300c-57,-98 -102,-135 -164,-135c-38,0 -128,40 -176,78l-24,20l44,76c90,156 182,306 187,306c3,0 38,-20 78,-45z"/>
   <path fill="#aaaaff" id="svg_8" d="m2831.78465,9659.31897c-35,-12 -348,-213 -348,-223c0,-5 89,-138 253,-378c45,-66 90,-131 100,-145l17,-25l35,19c76,41 76,43 -4,160c-39,57 -71,112 -71,120c0,18 69,56 102,56c21,0 103,-27 153,-50c11,-5 49,-21 84,-34l63,-26l42,25c22,14 52,33 65,43l23,19l-121,52c-67,29 -144,55 -171,58c-28,3 -50,8 -50,11s12,21 27,40c31,42 42,116 23,164s-79,107 -120,118c-45,13 -57,12 -102,-4zm87,-142c24,-26 32,-65 19,-98c-5,-14 -99,-88 -165,-130l-27,-17l-46,67c-26,37 -45,72 -42,79c2,7 42,38 88,69c97,65 135,71 173,30z"/>
   <path fill="#aaaaff" id="svg_9" d="m8671.78465,9156.31897c-73,-81 -161,-176 -194,-213c-34,-36 -74,-80 -90,-99l-28,-33l40,-35c48,-43 210,-191 279,-255l50,-47l38,37l39,37l-79,73c-43,41 -104,96 -135,124c-32,28 -58,56 -58,62s27,40 60,74l60,64l58,-51c31,-28 86,-77 122,-110c36,-34 68,-61 72,-61c3,0 20,17 37,39l31,39l-120,106c-66,59 -120,112 -120,119s22,35 50,62l49,49l23,-20c13,-10 71,-63 130,-116c58,-54 110,-98 115,-97c4,0 21,16 37,36l30,35l-65,62c-96,91 -259,239 -280,253c-15,11 -33,-4 -151,-134z"/>
   <path fill="#aaaaff" id="svg_10" d="m1882.78465,8891.31897c-22,-24 -39,-48 -39,-54c0,-11 32,-82 119,-268c21,-44 50,-106 64,-136c88,-192 107,-230 115,-230c4,0 27,20 49,43c41,43 41,44 27,73c-9,16 -24,49 -35,75l-20,45l93,98l93,98l75,-30l75,-30l47,46c26,25 45,49 42,53c-2,4 -41,22 -87,39c-45,18 -95,38 -112,45c-92,41 -439,175 -452,175c-8,0 -33,-19 -54,-42zm206,-143c94,-40 145,-65 145,-72c-1,-10 -120,-137 -124,-132c-14,15 -114,228 -109,232c5,6 16,2 88,-28z"/>
   <path fill="#aaaaff" id="svg_11" d="m9442.78465,8524.31897c-46,-33 -115,-81 -154,-108c-85,-58 -287,-203 -299,-214c-4,-4 6,-28 25,-53c36,-51 32,-52 114,9c17,12 54,38 83,58c98,69 157,111 205,145c26,19 47,30 47,25c0,-6 -74,-96 -165,-201c-91,-106 -165,-195 -165,-198c0,-4 16,-28 35,-54l35,-48l128,50c113,44 233,90 314,120c53,19 47,3 -15,-40c-150,-104 -330,-231 -338,-239c-14,-14 51,-95 70,-90c9,2 64,38 121,79c58,41 174,123 258,183c83,59 152,109 152,111c0,3 -85,125 -107,153c-4,6 -81,-21 -333,-117c-84,-31 -115,-39 -106,-23c4,6 70,86 147,178s138,172 135,178c-2,5 -26,43 -53,82l-50,73l-84,-59z"/>
   <path fill="#aaaaff" id="svg_12" d="m1320.78465,8191.31897l-48,-81l49,-51c27,-28 99,-103 160,-166s106,-116 99,-118c-7,-1 -91,20 -187,49c-229,67 -250,72 -253,68c-13,-17 -87,-148 -89,-157c-3,-11 535,-342 556,-342c14,0 56,61 56,82c0,10 -36,38 -87,68c-218,130 -334,203 -329,207c5,5 27,-1 318,-90l178,-54l31,48c17,27 29,53 27,59c-1,5 -84,91 -182,190c-165,165 -210,221 -139,174c15,-10 100,-61 188,-114s172,-104 186,-113l26,-18l31,48c24,37 29,50 19,59c-22,21 -545,334 -556,334c-4,0 -28,-37 -54,-82z"/>
   <path fill="#aaaaff" id="svg_13" d="m6298.78465,8226.31897c-201,-16 -493,-59 -509,-74c-6,-6 -5,-9 2,-9c23,0 256,-97 374,-156l116,-57l99,36c259,94 616,177 763,177c52,0 44,16 -12,23c-24,3 -83,13 -133,22c-196,34 -531,52 -700,38z"/>
   <path fill="#aaaaff" id="svg_14" d="m4833.78465,7928.31897c-252,-52 -438,-215 -518,-452c-22,-67 -26,-96 -27,-203c0,-133 14,-196 69,-311c79,-162 244,-292 441,-345c77,-21 241,-18 333,7c169,45 328,171 409,325c59,113 77,186 77,324c0,100 -4,125 -28,195c-87,253 -287,422 -547,465c-81,13 -127,12 -209,-5zm320,-189c36,-15 71,-30 79,-33c9,-4 12,-2 7,5c-5,8 -1,10 10,5c11,-4 13,-8 6,-11c-24,-8 -11,-22 16,-17c22,4 23,4 7,-4c-18,-8 -19,-9 -2,-16c10,-4 17,-18 17,-35c0,-16 5,-51 12,-79c7,-32 8,-55 2,-61c-5,-5 -49,-10 -98,-12l-89,-3l-26,50c-31,59 -74,85 -143,85c-119,0 -186,-73 -125,-134c23,-23 95,-48 227,-81c139,-34 213,-84 256,-171c24,-49 26,-63 22,-133c-9,-159 -103,-247 -288,-272c-152,-21 -305,22 -376,105c-56,65 -95,200 -61,211c6,2 44,6 84,10l72,6l21,-48c41,-92 87,-123 185,-123c80,0 130,21 156,64c33,54 21,104 -30,131c-16,8 -80,28 -143,45c-62,17 -138,43 -169,56c-228,103 -212,397 26,474c92,30 257,24 345,-14z"/>
   <path fill="#aaaaff" id="svg_15" d="m5563.78465,7743.31897c0,-5 5,-10 11,-10c5,0 7,5 4,10c-3,6 -8,10 -11,10c-2,0 -4,-4 -4,-10z"/>
   <path fill="#aaaaff" id="svg_16" d="m5633.78465,7643.31897c0,-5 5,-10 11,-10c5,0 7,5 4,10c-3,6 -8,10 -11,10c-2,0 -4,-4 -4,-10z"/>
   <path fill="#aaaaff" id="svg_17" d="m10088.78465,7596.31897c-15,-21 -62,-90 -106,-153c-121,-176 -113,-169 -248,-225c-81,-33 -121,-54 -121,-65c0,-13 34,-86 46,-99c1,-2 59,20 128,49l125,53l198,-32c109,-18 210,-35 225,-38l27,-5l-26,66c-19,47 -33,68 -47,71c-12,2 -77,11 -146,21c-69,9 -128,19 -132,23c-5,4 29,56 75,116c45,61 86,115 90,122c8,12 -41,133 -54,133c-4,0 -20,-17 -34,-37z"/>
   <path fill="#aaaaff" id="svg_18" d="m5653.78465,7617.31897c1,-16 29,-60 29,-44c0,8 -6,24 -14,34c-8,11 -15,16 -15,10z"/>
   <path fill="#aaaaff" id="svg_19" d="m5687.78465,7528.31897c16,-72 27,-105 38,-111c7,-5 9,1 4,20c-3,14 -9,38 -12,54c-4,15 -13,36 -22,47c-13,19 -14,18 -8,-10z"/>
   <path fill="#aaaaff" id="svg_20" d="m4108.78465,7222.31897c-508,-537 -824,-1212 -900,-1924c-28,-263 -18,-623 25,-899c24,-155 132,-562 160,-601c3,-5 15,-32 25,-60c88,-243 260,-549 443,-790c80,-105 254,-307 259,-301c2,2 -23,61 -55,132s-81,197 -108,279c-45,140 -52,154 -104,211c-58,65 -127,184 -161,281c-17,44 -23,91 -26,198c-5,123 -3,150 17,222c12,46 40,118 62,160c40,77 40,79 48,228c23,410 108,800 268,1230c112,299 339,723 511,951l31,42l-53,30c-121,69 -245,214 -303,357c-35,84 -47,135 -62,264l-7,64l-70,-74z"/>
   <path fill="#aaaaff" id="svg_21" d="m882.78465,7177.31897c-117,-36 -203,-241 -155,-368c30,-79 128,-124 210,-96c47,15 101,68 159,157c80,121 125,143 178,87c43,-46 23,-154 -38,-211c-18,-17 -36,-23 -72,-23l-48,0l-12,-55c-7,-30 -9,-60 -5,-66c4,-8 29,-10 72,-6c50,4 74,12 106,34c78,55 128,163 130,280c1,64 -2,76 -29,115c-39,55 -102,88 -170,88c-75,0 -130,-40 -198,-143c-73,-110 -100,-137 -135,-137c-40,0 -52,17 -52,71c0,90 42,149 107,149c30,0 32,3 47,54c21,70 20,73 -6,80c-30,8 -35,7 -89,-10z"/>
   <path fill="#aaaaff" id="svg_22" d="m8813.78465,5616.31897c-105,-202 -290,-455 -446,-610c-40,-39 -54,-62 -59,-90c-42,-280 -200,-494 -448,-607c-99,-46 -202,-66 -332,-66l-106,0l-102,-54c-531,-284 -1470,-450 -2102,-373c-18,2 -21,-6 -27,-93c-12,-173 -83,-335 -203,-467c-56,-62 -188,-158 -232,-169c-13,-4 -23,-10 -23,-15c0,-10 7,-12 155,-38c279,-51 338,-56 655,-55c317,0 428,9 645,54c596,123 1048,350 1560,785c452,384 821,918 1002,1450c40,119 121,435 110,435c-1,0 -22,-39 -47,-87z"/>
   <path fill="#aaaaff" id="svg_23" d="m7395.78465,5648.31897c-121,-26 -259,-108 -341,-202c-180,-204 -219,-486 -100,-731c34,-70 58,-102 128,-172c137,-136 277,-194 466,-193c155,1 274,40 398,131c114,85 211,232 243,370c20,85 19,235 -1,314c-89,346 -440,559 -793,483zm353,-159c15,-8 33,-13 39,-12c6,2 8,1 4,-1c-18,-10 -6,-24 15,-18c14,4 17,3 9,-2c-9,-7 -3,-17 23,-38c20,-15 47,-46 60,-69c29,-49 51,-134 39,-145c-5,-5 -50,-11 -100,-14l-90,-7l-15,42c-25,68 -55,83 -161,83c-86,0 -91,-1 -114,-28c-28,-33 -30,-57 -6,-84c26,-31 53,-41 178,-73c256,-65 334,-139 334,-314c0,-116 -67,-214 -177,-257c-48,-18 -79,-23 -173,-23c-199,-2 -294,44 -361,176c-22,43 -41,130 -31,139c4,4 46,10 94,13l87,7l11,-40c22,-84 89,-131 187,-131c96,0 173,51 173,114c-1,60 -35,81 -202,126c-130,36 -183,58 -234,96c-87,67 -116,213 -61,307c33,56 105,113 161,128c66,18 223,28 262,17c20,-5 38,-7 42,-4c3,3 -2,6 -11,6s-17,5 -17,10c0,13 3,13 35,-4z"/>
   <path fill="#aaaaff" id="svg_24" d="m175.78465,2761.31897l-2,-2668l5410,0l5410,0l-2,2668c0,1467 -4,2591 -9,2497c-76,-1751 -1020,-3370 -2514,-4316c-548,-347 -1168,-597 -1795,-723c-684,-138 -1317,-149 -1995,-35c-969,163 -1880,592 -2636,1244c-135,116 -431,411 -546,545c-276,322 -560,745 -742,1107c-338,675 -538,1439 -570,2178c-5,94 -9,-1030 -9,-2497z"/>
   <path fill="#aaaaff" id="svg_25" d="m2384.78465,5330.31897c-1,-4 9,-38 20,-75c146,-459 416,-913 751,-1260c38,-40 72,-71 75,-68c3,2 -1,22 -8,43s-14,43 -15,48c-1,6 -18,78 -38,160c-19,83 -43,207 -52,278l-18,127l-132,110c-209,175 -410,395 -566,621c-9,13 -17,20 -17,16z"/>
   <path fill="#aaaaff" id="svg_26" d="m9217.78465,2951.31897c-46,-63 -43,-58 -178,-220c-58,-70 -106,-131 -106,-135c0,-5 12,-21 28,-38c15,-16 99,-109 186,-205s162,-176 166,-178c16,-6 370,430 370,457c0,5 -14,21 -32,34l-31,25l-85,-112c-47,-61 -106,-136 -131,-166s-47,-57 -48,-59c-5,-7 -113,101 -113,112c0,5 26,41 58,80c33,40 84,105 116,146l57,74l-27,29c-15,15 -33,28 -38,27c-6,0 -60,-63 -119,-140c-59,-76 -111,-139 -115,-139s-28,20 -52,45l-43,44l59,73c79,95 187,239 182,241c-2,1 -17,15 -34,30l-31,28l-39,-53z"/>
   <path fill="#aaaaff" id="svg_27" d="m2206.78465,2699.31897c-4,-8 -89,-98 -188,-201s-181,-190 -182,-194c-1,-3 20,-31 48,-61l50,-55l81,88l82,88l113,-113l113,-113l25,30c13,17 24,35 22,42c-1,6 -49,59 -105,117l-104,106l42,50c23,28 46,50 52,50c5,0 59,-52 120,-115s115,-115 122,-114c6,0 22,14 35,30l23,30l-103,107c-57,59 -131,137 -164,175c-32,37 -62,67 -66,67c-5,0 -12,-6 -16,-14z"/>
   <path fill="#aaaaff" id="svg_28" d="m8756.78465,2397.31897c-65,-23 -166,-123 -205,-202c-28,-57 -33,-77 -33,-142c0,-63 5,-85 31,-141c57,-119 129,-172 234,-173c86,0 146,29 231,114c76,75 111,140 117,221c4,54 -12,133 -26,127c-4,-2 -31,-18 -59,-36c-48,-31 -52,-36 -46,-60c11,-39 6,-98 -12,-132c-30,-58 -96,-106 -150,-110c-61,-4 -75,1 -120,47c-115,116 -121,228 -16,326c52,49 93,63 135,47c15,-5 29,-10 31,-10c9,0 75,94 75,106c0,16 -61,34 -110,33c-19,0 -54,-7 -77,-15z"/>
   <path fill="#aaaaff" id="svg_29" d="m2606.78465,2184.31897c-119,-30 -223,-168 -223,-296c0,-106 76,-233 186,-311c79,-57 134,-76 211,-76c91,1 161,51 216,157c28,53 32,69 32,145c0,73 -4,93 -28,142c-74,151 -270,270 -394,239zm148,-133c85,-25 159,-123 159,-210c0,-55 -37,-131 -85,-178c-33,-32 -41,-35 -98,-35c-55,0 -68,4 -109,34c-103,74 -138,186 -88,281c23,44 51,74 88,97c41,26 76,28 133,11z"/>
   <path fill="#aaaaff" id="svg_30" d="m8268.78465,1989.31897l-39,-34l96,-158c64,-105 92,-160 83,-162c-15,-4 -191,67 -315,126l-84,41l-53,-30c-29,-17 -53,-35 -53,-40c0,-9 247,-507 257,-519c5,-5 91,41 105,57c7,9 -5,39 -40,105c-27,51 -66,124 -86,162c-21,37 -35,70 -32,73c2,2 26,-5 53,-17c130,-59 160,-71 267,-111c44,-16 86,-29 93,-29c16,0 119,80 116,90c-7,25 -304,475 -315,478c-7,1 -31,-13 -53,-32z"/>
   <path fill="#aaaaff" id="svg_31" d="m3162.78465,1726.31897c-29,-54 -68,-127 -87,-163s-56,-107 -84,-157l-49,-93l55,-35c30,-19 59,-35 63,-35c5,0 32,47 61,105c28,58 55,105 59,105c5,0 29,-16 55,-35c41,-30 49,-43 67,-103c11,-37 28,-103 37,-147s20,-86 24,-94c9,-17 131,-84 138,-76c8,7 -58,267 -74,292c-23,36 -17,41 39,36c90,-8 148,39 163,134c8,54 -23,121 -74,161c-45,35 -320,202 -332,202c-4,0 -32,-44 -61,-97zm216,-103c47,-28 94,-60 105,-72c20,-22 27,-73 12,-94c-13,-20 -48,-33 -73,-27c-40,10 -199,103 -199,116c0,11 59,127 65,127c2,0 43,-23 90,-50z"/>
   <path fill="#aaaaff" id="svg_32" d="m7678.78465,1611.31897c-49,-27 -139,-73 -198,-101c-92,-44 -108,-55 -103,-72c16,-65 195,-530 205,-533c12,-4 416,194 455,224c20,14 20,15 -2,52c-12,20 -25,36 -30,35c-4,-1 -81,-40 -171,-87c-90,-48 -166,-85 -167,-83c-5,5 -63,151 -61,153c1,1 56,30 122,64s135,71 152,82l33,19l-20,40c-11,21 -23,39 -27,39c-3,0 -36,-17 -72,-37c-118,-66 -214,-112 -223,-107c-9,6 -35,65 -44,100c-5,20 7,29 125,89c71,36 140,74 153,84c22,19 22,20 5,55c-9,20 -22,36 -29,35c-7,0 -53,-23 -103,-51z"/>
   <path fill="#aaaaff" id="svg_33" d="m3964.78465,1236.31897c-30,-93 -69,-214 -88,-270c-18,-57 -33,-108 -33,-115c0,-19 436,-178 487,-178c7,0 15,12 19,28c3,15 8,34 10,42c3,12 -38,29 -177,75c-99,32 -182,62 -185,66c-7,11 41,154 51,154c6,-1 75,-22 155,-48c79,-26 150,-47 156,-47c10,0 24,43 24,75c0,8 -64,35 -155,65c-85,29 -155,58 -155,65c0,6 7,35 15,63c18,60 27,63 107,31c29,-12 95,-33 146,-49c102,-30 107,-29 114,34c3,27 2,28 -182,90c-102,35 -198,68 -213,75c-16,6 -31,11 -35,11s-32,-75 -61,-167z"/>
   <path fill="#aaaaff" id="svg_34" d="m6916.78465,1285.31897c-25,-10 -43,-23 -43,-32c1,-23 136,-549 143,-556c13,-13 457,145 457,162c0,4 -5,24 -12,46c-8,28 -16,37 -27,33c-125,-48 -280,-104 -296,-107c-24,-4 -26,3 -99,272c-36,130 -58,195 -67,196c-8,1 -33,-5 -56,-14z"/>
   <path fill="#aaaaff" id="svg_35" d="m4570.78465,1171.31897c14,-35 43,-104 64,-155s39,-98 39,-106c0,-11 -107,-112 -249,-234c-28,-25 -30,-24 63,-48c66,-16 67,-16 128,40c23,23 62,58 85,78l41,38l57,-111c62,-121 66,-125 161,-136c52,-7 65,0 45,22c-11,11 -27,40 -110,197c-68,128 -68,122 -16,172c5,6 44,48 85,95s78,87 83,88c21,10 0,21 -60,32l-66,13l-73,-79l-72,-79l-40,85c-21,47 -41,92 -44,100c-4,12 -113,50 -141,50c-3,0 6,-28 20,-62z"/>
   <path fill="#aaaaff" id="svg_36" d="m6385.78465,1156.31897c-13,-3 -25,-10 -28,-17c-4,-11 74,-577 80,-584c9,-8 454,92 468,106c7,7 -5,79 -15,88c-2,3 -38,-4 -78,-16c-150,-41 -249,-59 -256,-47c-7,11 -41,199 -74,405l-11,72l-32,-1c-17,-1 -41,-4 -54,-6z"/>
   <path fill="#aaaaff" id="svg_37" d="m6083.78465,1117.31897c-63,-7 -159,-16 -214,-19l-98,-7l6,-107c3,-58 9,-193 12,-299l6,-192l62,0c60,0 329,23 414,36l44,7l-7,46c-4,25 -8,47 -8,47c-1,1 -49,-4 -107,-11s-141,-15 -186,-19l-81,-6l-7,76c-4,43 -3,81 2,86s76,16 158,24s154,16 161,19c12,4 7,72 -6,87c-3,3 -73,0 -155,-9c-81,-8 -154,-12 -162,-9c-10,4 -14,24 -14,70l0,64l78,7c141,12 247,26 255,34c4,4 5,26 1,49c-5,30 -11,42 -23,41c-9,-1 -68,-8 -131,-15z"/>
   <path fill="#aaaaff" id="svg_38" d="m5340.78465,1102.31897c-74,-8 -142,-50 -184,-113c-89,-131 -80,-312 18,-413c107,-108 311,-124 422,-32c34,28 85,114 74,125c-3,3 -29,12 -58,20c-50,13 -55,13 -64,-3c-5,-10 -26,-34 -45,-54c-51,-53 -110,-61 -183,-26c-76,38 -92,70 -92,182c0,77 4,96 25,134c35,61 78,83 157,79c53,-3 67,-9 93,-33c16,-16 33,-37 36,-48c5,-17 12,-19 58,-13c28,4 55,11 59,15c12,12 -18,68 -57,109c-54,58 -146,83 -259,71z"/>
  </g>
 </g>
</svg>