<svg width="226" height="226" xmlns="http://www.w3.org/2000/svg">

 <g>
  <title>background</title>
  <rect fill="none" id="canvas_background" height="602" width="802" y="-1" x="-1"/>
 </g>
 <g>
  <title>Layer 1</title>
  <path stroke="#000000" opacity="0.1" stroke-opacity="0" id="svg_5" d="m3.6303,159.18826c-0.07033,-52.36345 -0.14062,-104.72692 -0.21095,-157.09037c63.49045,0.60184 127.25017,-1.42574 190.52564,1.54543c30.85596,6.78648 26.40919,49.03311 25.9081,80.58807c-1.35356,23.79631 18.02813,70.96966 -32.31282,78.06022c-25.09766,0.00084 -25.19643,6.64361 -22.63468,18.65998c2.97287,18.00204 -5.65764,58.32889 -46.88719,32.76825l-114.38811,-54.53158l0.00001,-0.00001zm194.31139,-17.1176c0.10202,-47.06805 -0.74897,-87.22386 -4.96111,-118.23497c-37.42471,-10.54837 -87.99589,-5.41493 -130.33986,-5.57522c-16.64532,5.01662 39.48542,21.67421 51.39021,28.13765c45.19489,13.89739 58.67909,39.17114 50.87477,67.73421c0,11.11091 0,22.22185 0,33.33276c8.33435,-0.00625 25.57683,-2.56503 33.036,-5.39445l-0.00001,0.00003z" stroke-width="1.5" fill="#fff"/>
 </g>
</svg>