<svg width="226" height="226" xmlns="http://www.w3.org/2000/svg">

 <g>
  <title>background</title>
  <rect fill="none" id="canvas_background" height="602" width="802" y="-1" x="-1"/>
 </g>
 <g>
  <title>Layer 1</title>
  <path opacity="0.1" stroke="#000000" stroke-opacity="0" id="svg_5" d="m50.54361,157.45083c-0.04143,-35.46434 -0.08283,-70.92869 -0.12426,-106.39302c37.39849,0.40761 74.95559,-0.96561 112.22744,1.04668c18.17543,4.5963 15.5561,33.20879 15.26094,54.5801c-0.7973,16.11659 10.61931,48.06582 -19.03358,52.86806c-14.78355,0.00057 -14.84173,4.49953 -13.33276,12.63789c1.75114,12.19229 -3.33258,39.50457 -27.61848,22.19304l-67.3793,-36.93275l0.00001,-0.00001zm114.45741,-11.59329c0.06009,-31.8779 -0.44118,-59.07434 -2.9223,-80.07732c-22.0447,-7.14413 -51.8332,-3.66738 -76.77554,-3.77595c-9.80478,3.39762 23.25854,14.67935 30.27095,19.05686c26.62165,9.41232 34.5644,26.52954 29.96734,45.87453c0,7.52512 0,15.05025 0,22.57537c4.90927,-0.00423 15.0658,-1.73723 19.45956,-3.65351l-0.00001,0.00002z" stroke-width="1.5" fill="#fff"/>
 </g>
</svg>