<svg width="50" height="50" xmlns="http://www.w3.org/2000/svg">
 <defs>
  <clipPath id="clip0">
   <rect id="svg_1" fill="white" height="50" width="50"/>
  </clipPath>
 </defs>
 <g>
  <title>background</title>
  <rect fill="none" id="canvas_background" height="602" width="802" y="-1" x="-1"/>
 </g>
 <g>
  <title>Layer 1</title>
  <g id="svg_2" clip-path="url(#clip0)">
   <path stroke="#0f0f00" id="svg_3" fill="#a060e5" d="m27.5908,41.6052l-3.931,-3.9373c-0.7468,-0.749 -1.7776,-1.1245 -2.8257,-1.0311c-1.0371,0.0927 -1.9712,0.6355 -2.5625,1.4892c-0.0202,0.0292 -0.0393,0.0592 -0.0574,0.0898l-0.6103,1.033c-0.7389,-0.0262 -2.2993,-0.3805 -4.3795,-2.4824c-2.0607,-2.082 -2.4175,-3.6653 -2.4505,-4.4106l1.0258,-0.5987c0.0316,-0.0186 0.0626,-0.0383 0.0929,-0.0591c0.8555,-0.5889 1.4009,-1.5213 1.4966,-2.5582c0.0967,-1.0488 -0.2762,-2.0798 -1.0236,-2.8295l-3.93099,-3.9373c-1.09169,-1.0946 -2.73437,-1.3646 -4.08798,-0.672c-2.27618,1.1646 -3.767,3.3062 -4.19805,6.0301c-0.36992,2.3368 0.02998,5.0181 1.15605,7.7537c1.13975,2.7687 2.98584,5.4792 5.33848,7.8386c2.3543,2.3609 5.06029,4.2164 7.82539,5.3658c2.0864,0.8674 4.1414,1.3108 6.0367,1.3108c0.5879,0 1.1608,-0.0426 1.7141,-0.1286c2.7203,-0.4225 4.8627,-1.9055 6.0324,-4.1756c0.6965,-1.3516 0.4313,-2.9953 -0.6609,-4.0906z"/>
   <path stroke="#0f0f00" id="svg_4" fill="white" d="m45.1364,4.85664c-3.1317,-3.13193 -7.2957,-4.85664 -11.7248,-4.85664c-4.4291,0 -8.593,1.72471 -11.7249,4.85664c-2.6664,2.66641 -4.3571,6.19576 -4.7606,9.93796c-0.3736,3.4648 0.3617,6.9883 2.0744,9.996l-1.6654,6.0497c-0.1413,0.5127 0.0039,1.0618 0.3799,1.4378c0.376,0.3761 0.925,0.5213 1.4378,0.38l6.0497,-1.6655c2.4958,1.4213 5.3468,2.1694 8.2247,2.1694c0.5902,0 1.1817,-0.0314 1.7713,-0.095c3.7422,-0.4035 7.2715,-2.0941 9.9379,-4.7606c6.4652,-6.4652 6.4652,-16.9846 0,-23.44976zm-17.3269,12.63366c-0.8288,0 -1.4426,-0.6774 -1.4785,-1.4784c-0.0357,-0.7984 0.7051,-1.4784 1.4785,-1.4784c0.8288,0 1.4425,0.6774 1.4784,1.4784c0.0357,0.7985 -0.7051,1.4784 -1.4784,1.4784zm5.6021,0c-0.8288,0 -1.4426,-0.6774 -1.4784,-1.4784c-0.0357,-0.7984 0.7051,-1.4784 1.4784,-1.4784c0.8288,0 1.4426,0.6774 1.4784,1.4784c0.0358,0.7985 -0.7051,1.4784 -1.4784,1.4784zm5.6021,0c-0.8288,0 -1.4426,-0.6774 -1.4785,-1.4784c-0.0357,-0.7984 0.7051,-1.4784 1.4785,-1.4784c0.8288,0 1.4425,0.6774 1.4784,1.4784c0.0358,0.7985 -0.705,1.4784 -1.4784,1.4784z"/>
  </g>
 </g>
</svg>