<svg width="1920" height="687.0000000000001" xmlns="http://www.w3.org/2000/svg">
 <defs>
  <linearGradient y2="0.65736" x2="0.76738" y1="0.76963" x1="0.16233" id="paint0_linear">
   <stop stop-color="#F4992B"/>
   <stop stop-color="#F9CC26" offset="1"/>
  </linearGradient>
 </defs>
 <g>
  <title>background</title>
  <rect fill="none" id="canvas_background" height="602" width="802" y="-1" x="-1"/>
 </g>
 <g>
  <title>Layer 1</title>
  <path stroke="null" id="svg_1" fill="url(#paint0_linear)" d="m916.57,554.81534c-542.407,160.2136 -903.562,26.45202 -1018.83857,-96.45431l637.92657,-394.18433l1785.652,244.46315c52.34,110.753 65.74,330.19186 -299.34,321.92676c-456.35,-10.33108 -427.4,-276.0171 -1105.4,-75.75127z" opacity="0.1"/>
  <path id="svg_2" fill="#ddc3f7" d="m1507.57,757.73099c217.14,70.404 333.59,75.944 413.82,50.121l22.3,-1078.877l-2275.51,-47.043l-20.776,1004.929c441.689,266.988 1037.548,136.76 1174.826,90.481c238.23,-80.314 435.11,-100.749 685.34,-19.611z"/>
  <path id="svg_3" fill="#d4abfa" d="m1631.70127,557.63875c189.16,57.058 274.03118,-32.22422 343.00118,-56.01222l0,-494.293l-1970,0l0,430.254c387,223.205 628.65567,227.80263 1020.93451,201.27531c358.37692,-62.13019 388.06431,-146.98009 606.06431,-81.22409z"/>
  <path stroke="null" id="svg_4" fill="white" d="m194.28925,205.74491c59.5243,-116.10737 -17.17047,-233.7427 -62.95839,-278.04681c344.04854,-21.89741 1034.04392,-63.85907 1041.67525,-56.52597c9.53915,9.16637 30.52528,117.6351 -110.65415,213.88223c-141.17943,96.2469 -362.48772,21.3882 -450.24791,206.24336c-87.76019,184.85516 -244.20226,158.88377 -310.97631,151.24513c-66.77405,-7.63864 -181.24386,-91.66371 -106.83849,-236.79793z" opacity="0.1"/>
  <line stroke="null" stroke-linecap="null" stroke-linejoin="null" id="svg_20" y2="550.85714" x2="1653.71434" y1="413.85714" x1="1462.71434" stroke-opacity="null" stroke-width="null" fill="none"/>
  <path id="svg_22" d="m1521.07562,487.63404l29.02962,0l8.97038,-24.06392l8.97038,24.06392l29.02962,0l-23.48541,14.87215l8.97084,24.06392l-23.48542,-14.87256l-23.48542,14.87256l8.97084,-24.06392l-23.48542,-14.87215z" fill-opacity="null" stroke-opacity="null" stroke-width="null" stroke="null" fill="none"/>
  <path id="svg_31" d="m1546.34537,543.73303c-0.03597,-36.65442 -0.07191,-73.30886 -0.10788,-109.96327c32.47,0.42129 65.0777,-0.99802 97.43776,1.0818c15.78022,4.75053 13.50607,34.32318 13.2498,56.41166c-0.69223,16.65742 9.21987,49.67877 -16.52528,54.64216c-12.83533,0.00059 -12.88584,4.65053 -11.57573,13.06198c1.52037,12.60143 -2.8934,40.83023 -23.97883,22.93778l-58.49985,-38.17211l0.00001,-0.00001zm99.37385,-11.98232c0.05217,-32.94764 -0.38304,-61.05671 -2.53719,-82.76449c-19.13958,-7.38386 -45.00246,-3.79045 -66.65782,-3.90266c-8.51267,3.51163 20.19346,15.17195 26.28175,19.69636c23.11336,9.72817 30.00939,27.4198 26.01815,47.41396c0,7.77764 0,15.5553 0,23.33293c4.26231,-0.00437 13.08039,-1.79552 16.89512,-3.77612l-0.00001,0.00002z" stroke-opacity="null" stroke-width="null" stroke="null" fill="#dcc0f7"/>
  <text stroke="null" transform="matrix(1.9153881297913955,0,0,1.6009045839309692,-1359.189847389238,-341.9712264429909) " xml:space="preserve" text-anchor="start" font-family="'Times New Roman', Times, serif" font-size="24" id="svg_33" y="594.85714" x="1485.71429" stroke-opacity="null" stroke-width="0" fill="#dcc0f7">Smart Academy</text>
  <text stroke="null" transform="matrix(1.6114040613174438,0,0,1.2466281652450562,-797.0893853772432,-40.5818938780576) " xml:space="preserve" text-anchor="start" font-family="'Times New Roman', Times, serif" font-size="42" id="svg_34" y="188.85714" x="1303.71429" stroke-opacity="null" stroke-width="0" fill="#d9b8f9">Smart Academy</text>
  <text stroke="null" transform="matrix(1.7196736335754395,0,0,1,-789.9879965558648,0) " xml:space="preserve" text-anchor="start" font-family="'Times New Roman', Times, serif" font-size="42" id="svg_35" y="405.85714" x="1097.71429" stroke-opacity="null" stroke-width="0" fill="#cea5f7">Smart Academy</text>
  <text stroke="null" transform="matrix(1.4903970956802368,0,0,1,-923.7702040784061,0) " xml:space="preserve" text-anchor="start" font-family="'Times New Roman', Times, serif" font-size="24" id="svg_36" y="212.85714" x="1726.71429" stroke-opacity="null" stroke-width="0" fill="#ffaaff">Smart Academy</text>
  <path stroke="null" id="svg_37" d="m1103.53663,220.00826c-0.02473,-29.90983 -0.04944,-59.81966 -0.07417,-89.72948c22.32315,0.34377 44.74098,-0.81438 66.98854,0.88274c10.84891,3.87641 9.28543,28.00755 9.10925,46.03163c-0.47591,13.59237 6.33867,40.53763 -11.36114,44.58773c-8.8243,0.00048 -8.85903,3.79481 -7.95832,10.65851c1.04526,10.28271 -1.98922,33.31726 -16.48547,18.71711l-40.2187,-31.14825l0,0zm68.31961,-9.77752c0.03587,-26.88511 -0.26334,-49.82197 -1.74432,-67.53541c-13.15848,-6.02519 -30.93923,-3.09299 -45.82731,-3.18455c-5.85247,2.86548 13.88302,12.38024 18.06873,16.07213c15.89046,7.93814 20.63148,22.37442 17.8875,38.68955c0,6.34651 0,12.69304 0,19.03956c2.93034,-0.00357 8.99278,-1.46514 11.61541,-3.08129l0,0.00002z" stroke-opacity="null" stroke-width="null" fill="#dcc0f7"/>
  <path id="svg_40" d="m58.44794,346.4851c-0.02569,-16.42308 -0.05137,-32.84617 -0.07706,-49.26925c23.19286,0.18876 46.48408,-0.44716 69.5984,0.4847c11.27158,2.12849 9.64719,15.37857 9.46415,25.27535c-0.49445,7.46339 6.58562,22.25867 -11.80377,24.48252c-9.16809,0.00026 -9.20417,2.08368 -8.26838,5.85245c1.08598,5.6461 -2.06672,18.29406 -17.12774,10.27732l-41.78561,-17.10309l0,0zm70.98133,-5.3687c0.03727,-14.76225 -0.2736,-27.35657 -1.81228,-37.08279c-13.67113,-3.30835 -32.14462,-1.69832 -47.61273,-1.74859c-6.08048,1.57339 14.4239,6.79782 18.77268,8.82499c16.50955,4.35873 21.43528,12.28549 18.58439,21.24391c0,3.48479 0,6.96958 0,10.45437c3.04451,-0.00196 9.34313,-0.80449 12.06794,-1.6919l0,0.00001z" stroke-opacity="null" stroke-width="null" stroke="null" fill="#d9bff2"/>
  <text stroke="null" xml:space="preserve" text-anchor="start" font-family="'Times New Roman', Times, serif" font-size="50" id="svg_43" y="288.07543" x="345.30782" stroke-opacity="null" stroke-width="0" fill="#e8d4fc">Smart Academy</text>
 </g>
</svg>